<?xml version="1.0" encoding="utf-8"?>
<!-- Generator: Adobe Illustrator 23.0.0, SVG Export Plug-In . SVG Version: 6.00 Build 0)  -->
<svg version="1.1" id="图层_1" xmlns="http://www.w3.org/2000/svg" xmlns:xlink="http://www.w3.org/1999/xlink" x="0px" y="0px"
	 viewBox="0 0 1024 1024" style="enable-background:new 0 0 1024 1024;" xml:space="preserve">
<style type="text/css">
	.st0{fill:none;stroke:#F22624;stroke-width:240;stroke-miterlimit:10;}
	.st1{fill:none;stroke:#E07A64;stroke-width:240;stroke-miterlimit:10;}
	.st2{fill:none;stroke:#F4AF72;stroke-width:240;stroke-miterlimit:10;}
	.st3{fill:none;stroke:#FFDC7A;stroke-width:240;stroke-miterlimit:10;}
	.st4{fill:none;stroke:#C0C76C;stroke-width:240;stroke-miterlimit:10;}
	.st5{fill:none;stroke:#79B5BD;stroke-width:240;stroke-miterlimit:10;}
	.st6{fill:none;stroke:#A37CCA;stroke-width:240;stroke-miterlimit:10;}
	.st7{fill:#FFFFFF;}
	.st8{display:none;}
	.st9{display:inline;}
	.st10{fill:none;stroke:#000000;stroke-miterlimit:10;}
	.st11{display:inline;fill:none;stroke:#79B5BD;stroke-width:80;stroke-miterlimit:10;}
	.st12{display:inline;fill:none;stroke:#C0C76C;stroke-width:80;stroke-miterlimit:10;}
	.st13{display:inline;fill:none;stroke:#E07A64;stroke-width:80;stroke-miterlimit:10;}
	.st14{display:inline;fill:none;stroke:#F4AF72;stroke-width:80;stroke-miterlimit:10;}
	.st15{display:inline;fill:none;stroke:#FFDC7A;stroke-width:80;stroke-miterlimit:10;}
</style>
<g>
	<g>
		<g>
			<path class="st0" d="M411.1-683.3"/>
			<path class="st0" d="M-806.7,803.4"/>
			<line class="st1" x1="-561.8" y1="876.4" x2="655.8" y2="-610.3"/>
			<line class="st2" x1="-376.2" y1="1027.2" x2="841.6" y2="-459.5"/>
			<line class="st3" x1="-203.1" y1="1196.7" x2="1014.5" y2="-290"/>
			<line class="st4" x1="-32.2" y1="1367.7" x2="1185.5" y2="-119"/>
			<line class="st5" x1="154" y1="1520.3" x2="1371.7" y2="33.6"/>
		</g>
		<line class="st6" x1="337.4" y1="1671.6" x2="1555.2" y2="184.9"/>
	</g>
</g>
<path class="st7" d="M848.2,585.2c0,47.3-7.1,90.9-21.4,130.6c-14.3,39.9-35.5,74.4-63.7,103.7s-63.2,52.2-105.3,68.7
	S567.3,913,512.5,913c-55.6,0-104.3-8.2-146.4-24.8c-42.1-16.5-77.2-39.4-105.3-68.7c-28.2-29.3-49.4-63.8-63.7-103.7
	c-14.3-39.8-21.4-83.4-21.4-130.6V95.3h175.7v483.3c0,24.8,3.9,47.7,11.8,68.7s18.9,39.2,33.2,54.7c14.3,15.4,31.4,27.4,51.2,36.1
	c19.9,8.7,41.5,12.9,64.8,12.9c23.3,0,44.7-4.3,64.2-12.9c19.5-8.6,36.4-20.6,50.7-36.1c14.3-15.4,25.4-33.6,33.2-54.7
	c7.9-21,11.8-44,11.8-68.7V95.3H848v489.9H848.2z"/>
<g class="st8">
	<g class="st9">
		<line class="st10" x1="-479.6" y1="866.4" x2="600.2" y2="-451.9"/>
		<line class="st10" x1="-262.5" y1="921.4" x2="817.2" y2="-396.9"/>
		<line class="st10" x1="-105.9" y1="1049.8" x2="974" y2="-268.5"/>
		<line class="st10" x1="53.8" y1="1200.1" x2="1133.5" y2="-118.2"/>
		<line class="st10" x1="208.9" y1="1357.9" x2="1288.7" y2="39.6"/>
		<line class="st10" x1="366" y1="1487" x2="1445.8" y2="168.7"/>
	</g>
</g>
<g class="st8">
	<line class="st11" x1="473.8" y1="951.1" x2="1051.7" y2="474.1"/>
	<line class="st12" x1="417" y1="882" x2="994.9" y2="405"/>
	<line class="st13" x1="246.4" y1="675.1" x2="824.3" y2="198.2"/>
	<line class="st14" x1="303.1" y1="743.8" x2="881" y2="266.8"/>
	<line class="st15" x1="361.3" y1="811.8" x2="939.2" y2="334.9"/>
</g>
</svg>
